<svg height="512" viewBox="0 0 512 512" width="512" xmlns="http://www.w3.org/2000/svg"><g id="filled_outline" data-name="filled outline"><circle cx="400" cy="208" fill="#ec9e15" r="28"/><path d="m407.608 101.927 7.155 22.02a8 8 0 0 0 7.609 5.528h23.153a8 8 0 0 1 4.7 14.472l-18.725 13.61a8 8 0 0 0 -2.906 8.944l7.154 22.02a8 8 0 0 1 -12.31 8.944l-18.738-13.609a8 8 0 0 0 -9.4 0l-18.732 13.609a8 8 0 0 1 -12.31-8.944l7.154-22.02a8 8 0 0 0 -2.906-8.944l-18.731-13.61a8 8 0 0 1 4.7-14.472h23.153a8 8 0 0 0 7.609-5.528l7.155-22.02a8 8 0 0 1 15.216 0z" fill="#fdb62f"/><path d="m424 344-9.6 8-30.4 1.667-8-9.667-16-112h80z" fill="#ec9e15"/><path d="m360 232 16 112 3.832 8 32.752 2.272 1.816-10.272 13.6-112z" fill="#fdb62f"/><path d="m312 488h-272v-112a64 64 0 0 1 64-64h144a64 64 0 0 1 64 64z" fill="#3474a6"/><path d="m128 312 32 175.999 32 .001 32-176z" fill="#ebebeb"/><path d="m224 312-32-8h-32l-32 8 48 56z" fill="#fec9a3"/><path d="m132.521 310.87a63.744 63.744 0 0 0 86.958 0l-27.479-6.87h-32z" fill="#efb58b"/><path d="m176 80a88 88 0 0 1 88 88v48a0 0 0 0 1 0 0h-176a0 0 0 0 1 0 0v-48a88 88 0 0 1 88-88z" fill="#dc9315"/><path d="m252 240h-20v-40h20a20 20 0 0 1 20 20 20 20 0 0 1 -20 20z" fill="#fec9a3"/><path d="m100 240h20v-40h-20a20 20 0 0 0 -20 20 20 20 0 0 0 20 20z" fill="#fec9a3"/><path d="m128 312-32 64 32 24-24 16 32 72 24-.001z" fill="#2a5e86"/><path d="m80 400h16v88h-16z" fill="#2a5e86"/><path d="m224 312 32 64-32 24 24 16-32 72-24-.001z" fill="#2a5e86"/><path d="m256 400h16v88h-16z" fill="#2a5e86"/><path d="m168 416h16v16h-16z" fill="#dbdbdb"/><path d="m168 448h16v16h-16z" fill="#dbdbdb"/><path d="m129.88 130.04h15.998v59.592h-15.998z" fill="#c48412" transform="matrix(.8 -.6 .6 .8 -68.328 114.705)"/><path d="m161.419 130.195h15.998v58.064h-15.998z" fill="#c48412" transform="matrix(.8 -.6 .6 .8 -61.651 133.484)"/><path d="m193.419 130.195h15.998v58.064h-15.998z" fill="#c48412" transform="matrix(.8 -.6 .6 .8 -55.252 152.682)"/><path d="m176 312a64 64 0 0 1 -64-64v-80h128v80a64 64 0 0 1 -64 64z" fill="#fec9a3"/><circle cx="144" cy="216" fill="#c48412" r="8"/><circle cx="208" cy="216" fill="#c48412" r="8"/><path d="m176 256a7.971 7.971 0 0 1 -5.656-2.344l-8-8a8 8 0 0 1 -1.5-9.234l8-16a8 8 0 0 1 14.312 7.156l-5.422 10.844 3.922 3.922a8 8 0 0 1 -5.656 13.656z" fill="#c48412"/><path d="m176 279.977a43.839 43.839 0 0 1 -19.578-4.6 8 8 0 0 1 7.156-14.313 27.9 27.9 0 0 0 24.844 0 8 8 0 0 1 7.156 14.313 43.839 43.839 0 0 1 -19.578 4.6z" fill="#c48412"/><path d="m440 432h-80v-72l16-16h48l16 16z" fill="#a55e00"/><path d="m344 456 16-32h80l16 32-16 9.333-80-1.333z" fill="#995701"/><path d="m360 384h24v16h-24z" fill="#844b02"/><path d="m400 384h40v16h-40z" fill="#844b02"/><g fill="#fbeebd"><path d="m440 64h16v16h-16z"/><path d="m464 40h16v16h-16z"/><path d="m416 40h16v16h-16z"/><path d="m440 16h16v16h-16z"/><path d="m304 112h16v16h-16z"/><path d="m320 96h16v16h-16z"/><path d="m288 96h16v16h-16z"/><path d="m304 80h16v16h-16z"/></g><path d="m184 360 40-8v40l-40-8z" fill="#c94536"/><path d="m168 360-40-8v40l40-8z" fill="#c94536"/><circle cx="175.029" cy="372" fill="#f85542" r="16.971"/><path d="m344 456h112v32h-112z" fill="#844b02"/><path d="m312 496a8 8 0 0 0 8-8v-112a72.081 72.081 0 0 0 -72-72h-23.02l-2.912-.73a71.864 71.864 0 0 0 25.932-55.27h4a27.956 27.956 0 0 0 20-47.534v-32.466a96 96 0 0 0 -192 0v32.466a27.956 27.956 0 0 0 20 47.534h4a71.864 71.864 0 0 0 25.932 55.27l-2.912.73h-23.02a72.081 72.081 0 0 0 -72 72v112a8 8 0 0 0 8 8zm-113.064-130.814 17.064-3.413v20.469l-17.066-3.422a22.35 22.35 0 0 0 0-13.634zm10.637-18.453-5.8 1.163 7.091-8.272zm-27.194 1.529a22.683 22.683 0 0 0 -13.129-.488l-26.75-31.165 6.951-1.745a71.19 71.19 0 0 0 53.1 0l6.96 1.748zm1.621 23.738a8.969 8.969 0 1 1 -8.969-8.969 8.979 8.979 0 0 1 8.969 8.969zm-35.724-24.094-5.849-1.173-1.3-7.152zm2.965 16.915a22.446 22.446 0 0 0 0 14.364l-15.241 3.057v-20.469zm34.087 115.179h-18.656l-15.4-84.506 10.921-2.189a24.444 24.444 0 0 0 26.191-.283l12.338 2.472zm62.672-160a56.065 56.065 0 0 1 56 56v104h-32v-80h-16v80h-27.688l27-60.75a8 8 0 0 0 -2.874-9.906l-14.594-9.727 22.956-17.217a8 8 0 0 0 2.359-9.976l-26.214-52.424zm-20.41 17.074 18.269 36.531-13.859 10.395v-32a7.755 7.755 0 0 0 -5.737-7.6zm10.363 81.84-27.148 61.086h-9.219l14.445-79.277a8 8 0 0 0 3.531 5.933zm26.047-198.914a12.013 12.013 0 0 1 -12 12h-4v-24h4a12.013 12.013 0 0 1 12 12zm-160 12h-4a12 12 0 0 1 0-24h4zm0-64v24h-4a27.628 27.628 0 0 0 -4 .4v-24.4a80 80 0 1 1 160 0v24.4a27.628 27.628 0 0 0 -4-.4h-4v-24a8 8 0 0 0 -8-8h-28l-21.6-28.8-12.8 9.6 14.4 19.2h-12l-21.6-28.8-12.8 9.6 14.4 19.2h-12l-21.6-28.8-12.8 9.6 14.4 19.2h-16a8 8 0 0 0 -8 8zm16 80v-72h112v72a56 56 0 0 1 -112 0zm12.438 158.656a8 8 0 0 0 3.531-5.933l14.445 79.277h-9.214l-27.148-61.086zm-6.7-62.252a7.737 7.737 0 0 0 -5.738 7.596v32l-13.859-10.4 18.269-36.531zm-29.738 135.596v-80h-16v80h-32v-104a56.065 56.065 0 0 1 56-56h11.055l-26.211 52.422a8 8 0 0 0 2.356 9.978l22.953 17.219-14.594 9.727a8 8 0 0 0 -2.874 9.906l27 60.75z"/><path d="m168 416h16v16h-16z"/><path d="m168 448h16v16h-16z"/><circle cx="144" cy="216" r="8"/><circle cx="208" cy="216" r="8"/><path d="m170.344 253.656a8 8 0 0 0 11.312-11.312l-3.922-3.922 5.422-10.844a8 8 0 0 0 -14.312-7.156l-8 16a8 8 0 0 0 1.5 9.234z"/><path d="m156.422 275.379a43.98 43.98 0 0 0 39.156 0 8 8 0 0 0 -7.156-14.313 27.9 27.9 0 0 1 -24.844 0 8 8 0 0 0 -7.156 14.313z"/><path d="m463.445 453.249c-.065-.178-.107-.356-.184-.528-.044-.1-.056-.2-.105-.3l-15.156-30.312v-62.109a8 8 0 0 0 -2.344-5.656l-13.169-13.169 15.435-108.042a8 8 0 0 0 -7.922-9.133h-12.451a31.633 31.633 0 0 0 4.451-16c0-.522-.084-1.03-.109-1.548a15.96 15.96 0 0 0 5.648-2.514 15.752 15.752 0 0 0 5.813-17.891l-7.152-22.016 18.735-13.609a16 16 0 0 0 -9.407-28.945h-23.153l-7.156-22.024a16.006 16.006 0 0 0 -30.438 0l-7.156 22.024h-23.148a16 16 0 0 0 -9.407 28.945l18.735 13.6-7.157 22.016a15.756 15.756 0 0 0 5.813 17.895 16.013 16.013 0 0 0 5.649 2.511c-.025.52-.11 1.028-.11 1.551a31.633 31.633 0 0 0 4.451 16h-12.451a8 8 0 0 0 -7.922 9.133l15.435 108.042-13.169 13.169a8 8 0 0 0 -2.344 5.661v62.109l-15.156 30.313c-.049.1-.061.2-.105.3-.077.171-.118.349-.183.525a7.917 7.917 0 0 0 -.5 2.461c0 .1-.059.188-.059.292v32a8 8 0 0 0 8 8h112.003a8 8 0 0 0 8-8v-32c0-.1-.055-.189-.059-.292a7.875 7.875 0 0 0 -.496-2.459zm-91.578-262.257 7.156-22.023a15.97 15.97 0 0 0 -5.812-17.883l-18.734-13.609h23.148a15.962 15.962 0 0 0 15.219-11.055l7.117-22.117a.553.553 0 0 1 .039.1l7.156 22.02a15.962 15.962 0 0 0 15.219 11.055h23.148l-18.734 13.61a15.966 15.966 0 0 0 -5.812 17.883l7.164 22.019-18.741-13.613a15.97 15.97 0 0 0 -18.8 0zm44.133 17.008a16 16 0 0 1 -32 0 15.549 15.549 0 0 1 2-7.5l14-10.17 14 10.17a15.549 15.549 0 0 1 2 7.5zm14.773 32-13.711 96h-34.124l-13.711-96zm-62.773 160h16v-16h-16v-20.688l11.312-11.312h41.376l11.312 11.312v20.688h-32v16h32v16h-64zm-3.055 32h70.11l8 16h-86.11zm83.055 48h-96v-16h96z"/><path d="m440 64h16v16h-16z"/><path d="m464 40h16v16h-16z"/><path d="m416 40h16v16h-16z"/><path d="m440 16h16v16h-16z"/><path d="m304 112h16v16h-16z"/><path d="m320 96h16v16h-16z"/><path d="m288 96h16v16h-16z"/><path d="m304 80h16v16h-16z"/></g></svg>